MISSION:IMPOSSIBLE  The 1988 TV SEASON  4 Episodes (Disc#2)

Episodes: 

#5- The Legacy 
The grandsons of four nazi officers congregate to collect a stash of gold hidden by Hittler, and to create the fourth reich.Now,Jim Phelps and his team are on a mission to stop this new wave of terrorism. 

#6- The Wall 
A German doctor and colonel team up for a very lucrative human trafficking scam.Jim Phelps and the IMF team have to destroy their black market operation. 

#7- The Cattle King 
Jim Phelps and the IMF team join forces with a group of aborigines to put an Australian International arms dealer out of business. 

#8- The Pawn 
A chess tournament in Czechoslovakia is a prfect ruse for the IMF agents to smuggle a European chess master,a rogue Russian scientist, and his daughter out of the Soviet Union. 

INFO: 

Format                                   : MPEG-4
Format profile                           : Base Media / Version 2
Codec ID                                 : mp42
Overall bit rate mode                    : Variable
Overall bit rate                         : 2 061 Kbps

Video
ID                                       : 1
Format                                   : AVC
Format/Info                              : Advanced Video Codec
Format profile                           : Main@L3.0
Format settings, CABAC                   : Yes
Format settings, ReFrames                : 2 frames
Codec ID                                 : avc1
Codec ID/Info                            : Advanced Video Coding
Duration                                 : 47mn 50s
Bit rate mode                            : Variable
Bit rate                                 : 1 860 Kbps
Maximum bit rate                         : 7 343 Kbps
Width                                    : 720 pixels
Height                                   : 480 pixels
Display aspect ratio                     : 4:3
Original display aspect ratio            : 4:3
Frame rate mode                          : Constant
Frame rate                               : 29.970 fps
Standard                                 : NTSC
Color space                              : YUV
Chroma subsampling                       : 4:2:0
Bit depth                                : 8 bits
Scan type                                : Progressive
Bits/(Pixel*Frame)                       : 0.180
Stream size                              : 637 MiB (90%)
Language                                 : English

Audio
ID                                       : 2
Format                                   : AAC
Format/Info                              : Advanced Audio Codec
Format profile                           : LC
Codec ID                                 : 40
Bit rate mode                            : Variable
Bit rate                                 : 192 Kbps
Maximum bit rate                         : 234 Kbps
Channel(s)                               : 2 channels
Channel positions                        : Front: L R
Sampling rate                            : 48.0 KHz
Compression mode                         : Lossy
Stream size                              : 65.7 MiB (9%)
Title                                    : eng
Language                                 : English

Size: 2.77GB  